<svg xmlns="http://www.w3.org/2000/svg" viewBox="0 0 24 24">
  <!-- Monarch butterfly — upper wings -->
  <path d="M12 11 C10 8 6 5 3 6 C1 7 1 10 3 12 C5 14 9 13 12 12 Z" fill="#E8830A"/>
  <path d="M12 11 C14 8 18 5 21 6 C23 7 23 10 21 12 C19 14 15 13 12 12 Z" fill="#E8830A"/>
  <!-- Lower wings -->
  <path d="M12 12 C10 14 7 17 5 18 C3 19 2 17 4 15 C6 13 10 13 12 12 Z" fill="#D4700A"/>
  <path d="M12 12 C14 14 17 17 19 18 C21 19 22 17 20 15 C18 13 14 13 12 12 Z" fill="#D4700A"/>
  <!-- Body -->
  <line x1="12" y1="7" x2="12" y2="19" stroke="#1a0a00" stroke-width="1.2" stroke-linecap="round"/>
  <!-- Antennae -->
  <line x1="12" y1="7" x2="10" y2="4" stroke="#1a0a00" stroke-width="0.8" stroke-linecap="round"/>
  <line x1="12" y1="7" x2="14" y2="4" stroke="#1a0a00" stroke-width="0.8" stroke-linecap="round"/>
  <circle cx="10" cy="3.5" r="0.6" fill="#1a0a00"/>
  <circle cx="14" cy="3.5" r="0.6" fill="#1a0a00"/>
</svg>
